<svg xmlns="http://www.w3.org/2000/svg" width="198" height="52.596" viewBox="0 0 198 52.596">
  <g id="Group_118" data-name="Group 118" transform="translate(318.187 -51.969)">
    <g id="Group_116" data-name="Group 116" transform="translate(-318.187 51.969)">
      <g id="Group_111" data-name="Group 111" transform="translate(0 18.551)">
        <path id="Path_73" data-name="Path 73" d="M-291.09,112.529a27.131,27.131,0,0,1-27.1-27.1v-6.94h9.8v4.2h-5.606v2.743a22.929,22.929,0,0,0,22.9,22.906,22.929,22.929,0,0,0,22.9-22.906V82.682h-6.074v-4.2h10.272v6.94A27.131,27.131,0,0,1-291.09,112.529Z" transform="translate(318.187 -78.484)" fill="#eed9b1"/>
      </g>
      <g id="Group_114" data-name="Group 114" transform="translate(12.17)">
        <g id="Group_112" data-name="Group 112">
          <path id="Path_74" data-name="Path 74" d="M-285.865,92.421c-8.231,0-14.927-9.073-14.927-20.226s6.7-20.226,14.927-20.226,14.926,9.074,14.926,20.226S-277.634,92.421-285.865,92.421Zm0-36.254c-5.916,0-10.729,7.19-10.729,16.028s4.813,16.028,10.729,16.028,10.728-7.19,10.728-16.028S-279.95,56.167-285.865,56.167Z" transform="translate(300.792 -51.969)" fill="#eed9b1"/>
        </g>
        <g id="Group_113" data-name="Group 113" transform="translate(7.803 0.434)">
          <path id="Path_75" data-name="Path 75" d="M-283.763,92.556c-.24-.178-5.876-4.423-5.876-11.1a15.95,15.95,0,0,1,.169-2.326,13.7,13.7,0,0,1,5.808-9.093c1.506-1.054,4.033-3.262,4.033-6.205,0-4.613-4.129-7.888-4.171-7.92l2.563-3.325c.236.182,5.806,4.534,5.806,11.245,0,3.591-2.068,7.016-5.823,9.645a9.492,9.492,0,0,0-4.063,6.266,11.772,11.772,0,0,0-.124,1.713c0,4.531,4.139,7.7,4.18,7.728Z" transform="translate(289.639 -52.589)" fill="#eed9b1"/>
        </g>
      </g>
      <g id="Group_115" data-name="Group 115" transform="translate(52.258 18.551)">
        <path id="Path_76" data-name="Path 76" d="M-243.495,94.812v-4.2c4.354,0,7.607-2.095,7.607-3.966s-3.253-3.966-7.607-3.966v-4.2c6.62,0,11.805,3.586,11.805,8.164S-236.875,94.812-243.495,94.812Z" transform="translate(243.495 -78.484)" fill="#eed9b1"/>
      </g>
    </g>
    <g id="Group_117" data-name="Group 117" transform="translate(-245.66 67.096)">
      <path id="Path_77" data-name="Path 77" d="M-210.02,75.573l5.768,15.326,5.754-15.326h4.491v20h-3.461V88.976l.344-8.817-5.9,15.409h-2.486l-5.891-15.395.343,8.8v6.592h-3.46v-20Z" transform="translate(214.524 -74.186)" fill="#eed9b1"/>
      <path id="Path_78" data-name="Path 78" d="M-172.43,96.317a5.176,5.176,0,0,1-4.175,1.73,4.614,4.614,0,0,1-3.66-1.414,6.016,6.016,0,0,1-1.243-4.093V82.913h3.337V92.5q0,2.828,2.349,2.829a3.3,3.3,0,0,0,3.283-1.744V82.913h3.337v14.86h-3.146Z" transform="translate(204.607 -76.39)" fill="#eed9b1"/>
      <path id="Path_79" data-name="Path 79" d="M-161.505,90.115a8.69,8.69,0,0,1,1.627-5.527,5.225,5.225,0,0,1,4.319-2.067,4.9,4.9,0,0,1,4,1.771l.151-1.5h3.008V97.2a5.989,5.989,0,0,1-1.82,4.614,6.932,6.932,0,0,1-4.909,1.689,7.9,7.9,0,0,1-3.193-.68,5.678,5.678,0,0,1-2.369-1.778l1.579-2.005a4.771,4.771,0,0,0,3.791,1.826,3.687,3.687,0,0,0,2.623-.9,3.447,3.447,0,0,0,.961-2.643v-1a4.911,4.911,0,0,1-3.845,1.607,5.211,5.211,0,0,1-4.264-2.074A8.971,8.971,0,0,1-161.505,90.115Zm3.323.288a5.985,5.985,0,0,0,.914,3.523,2.937,2.937,0,0,0,2.533,1.284,3.213,3.213,0,0,0,2.994-1.73V86.943a3.166,3.166,0,0,0-2.967-1.689,2.948,2.948,0,0,0-2.561,1.3A6.7,6.7,0,0,0-158.182,90.4Z" transform="translate(198.599 -76.272)" fill="#eed9b1"/>
      <path id="Path_80" data-name="Path 80" d="M-124.476,89.216a7.166,7.166,0,0,1-2.259,4.834,7.474,7.474,0,0,1-5.1,1.675,7.054,7.054,0,0,1-3.936-1.112,7.252,7.252,0,0,1-2.643-3.152,11.223,11.223,0,0,1-.947-4.662V84.2a11.314,11.314,0,0,1,.934-4.724,7.181,7.181,0,0,1,2.685-3.179,7.315,7.315,0,0,1,4.03-1.119,7.154,7.154,0,0,1,5.075,1.731,7.243,7.243,0,0,1,2.163,4.792h-1.7q-.632-5.094-5.535-5.095a5.244,5.244,0,0,0-4.332,2.035,8.82,8.82,0,0,0-1.614,5.621v2.446a8.887,8.887,0,0,0,1.573,5.526,5.067,5.067,0,0,0,4.251,2.061,5.622,5.622,0,0,0,4-1.271,6.085,6.085,0,0,0,1.662-3.81Z" transform="translate(191.949 -74.068)" fill="#eed9b1"/>
      <path id="Path_81" data-name="Path 81" d="M-115.669,90.006a8.741,8.741,0,0,1,.831-3.859,6.339,6.339,0,0,1,2.348-2.671,6.326,6.326,0,0,1,3.44-.954,6.114,6.114,0,0,1,4.807,2.08,8.021,8.021,0,0,1,1.84,5.514v.344a8.813,8.813,0,0,1-.831,3.88A6.2,6.2,0,0,1-105.575,97a6.415,6.415,0,0,1-3.447.934,6.118,6.118,0,0,1-4.8-2.08,8,8,0,0,1-1.847-5.514Zm1.648.453a6.742,6.742,0,0,0,1.38,4.374,4.428,4.428,0,0,0,3.619,1.71,4.411,4.411,0,0,0,3.6-1.71,6.961,6.961,0,0,0,1.38-4.511v-.316a7.57,7.57,0,0,0-.631-3.118,5.081,5.081,0,0,0-1.772-2.191,4.528,4.528,0,0,0-2.609-.776,4.391,4.391,0,0,0-3.584,1.724,6.974,6.974,0,0,0-1.387,4.511Z" transform="translate(184.832 -76.272)" fill="#eed9b1"/>
      <path id="Path_82" data-name="Path 82" d="M-92.835,94.973V81.459h-2.459V80.113h2.459v-1.8a4.891,4.891,0,0,1,1.16-3.5,4.245,4.245,0,0,1,3.234-1.222,6.313,6.313,0,0,1,1.744.232l-.124,1.362a6.414,6.414,0,0,0-1.5-.165,2.689,2.689,0,0,0-2.116.847,3.494,3.494,0,0,0-.755,2.4v1.844h3.544v1.346h-3.544V94.973Z" transform="translate(178.713 -73.59)" fill="#eed9b1"/>
      <path id="Path_83" data-name="Path 83" d="M-81.135,94.973V81.459h-2.459V80.113h2.459v-1.8a4.894,4.894,0,0,1,1.16-3.5,4.247,4.247,0,0,1,3.234-1.222A6.313,6.313,0,0,1-75,73.822l-.123,1.362a6.424,6.424,0,0,0-1.5-.165,2.689,2.689,0,0,0-2.116.847,3.494,3.494,0,0,0-.755,2.4v1.844h3.544v1.346h-3.544V94.973Z" transform="translate(175.198 -73.59)" fill="#eed9b1"/>
      <path id="Path_84" data-name="Path 84" d="M-65.173,97.929A6.444,6.444,0,0,1-68.6,97a6.361,6.361,0,0,1-2.382-2.6,8.108,8.108,0,0,1-.851-3.742v-.59A8.738,8.738,0,0,1-71,86.2a6.621,6.621,0,0,1,2.314-2.7,5.716,5.716,0,0,1,3.213-.982,5.368,5.368,0,0,1,4.292,1.847A7.493,7.493,0,0,1-59.6,89.415v.921H-70.2v.316a6.222,6.222,0,0,0,1.448,4.21A4.612,4.612,0,0,0-65.1,96.543a5.345,5.345,0,0,0,2.328-.481,5.155,5.155,0,0,0,1.833-1.538l1.03.783A5.993,5.993,0,0,1-65.173,97.929Zm-.3-14.008A4.11,4.11,0,0,0-68.6,85.281a6.285,6.285,0,0,0-1.545,3.654h8.913v-.178a5.453,5.453,0,0,0-1.222-3.488A3.787,3.787,0,0,0-65.476,83.922Z" transform="translate(171.666 -76.272)" fill="#eed9b1"/>
      <path id="Path_85" data-name="Path 85" d="M-46.014,97.929A6.444,6.444,0,0,1-49.441,97a6.361,6.361,0,0,1-2.382-2.6,8.108,8.108,0,0,1-.851-3.742v-.59a8.738,8.738,0,0,1,.831-3.859,6.619,6.619,0,0,1,2.314-2.7,5.718,5.718,0,0,1,3.213-.982,5.368,5.368,0,0,1,4.292,1.847,7.489,7.489,0,0,1,1.586,5.047v.921h-10.6v.316a6.226,6.226,0,0,0,1.448,4.21,4.613,4.613,0,0,0,3.647,1.682,5.343,5.343,0,0,0,2.328-.481,5.163,5.163,0,0,0,1.834-1.538l1.029.783A5.993,5.993,0,0,1-46.014,97.929Zm-.3-14.008a4.11,4.11,0,0,0-3.125,1.359,6.285,6.285,0,0,0-1.545,3.654h8.913v-.178A5.453,5.453,0,0,0-43.3,85.268,3.787,3.787,0,0,0-46.317,83.922Z" transform="translate(165.912 -76.272)" fill="#eed9b1"/>
    </g>
  </g>
</svg>
