<svg xmlns="http://www.w3.org/2000/svg" xmlns:xlink="http://www.w3.org/1999/xlink" width="236" height="62.69" viewBox="0 0 236 62.69">
  <defs>
    <clipPath id="clip-path">
      <rect width="236" height="62.69" fill="none"/>
    </clipPath>
  </defs>
  <g id="Repeat_Grid_1" data-name="Repeat Grid 1" clip-path="url(#clip-path)">
    <g id="Group_110" data-name="Group 110" transform="translate(318.187 -51.969)">
      <g id="Group_108" data-name="Group 108" transform="translate(-318.187 51.969)">
        <g id="Group_103" data-name="Group 103" transform="translate(0 22.111)">
          <path id="Path_60" data-name="Path 60" d="M-285.889,119.062a32.339,32.339,0,0,1-32.3-32.306V78.484H-306.5v5h-6.681v3.269a27.33,27.33,0,0,0,27.294,27.3,27.329,27.329,0,0,0,27.294-27.3V83.488h-7.24v-5h12.244v8.272A32.338,32.338,0,0,1-285.889,119.062Z" transform="translate(318.187 -78.484)" fill="#335230"/>
        </g>
        <g id="Group_106" data-name="Group 106" transform="translate(14.506)">
          <g id="Group_104" data-name="Group 104">
            <path id="Path_61" data-name="Path 61" d="M-283,100.185c-9.81,0-17.792-10.814-17.792-24.108S-292.811,51.969-283,51.969s17.791,10.815,17.791,24.108S-273.19,100.185-283,100.185Zm0-43.212c-7.052,0-12.788,8.57-12.788,19.1s5.737,19.1,12.788,19.1,12.787-8.57,12.787-19.1S-275.95,56.973-283,56.973Z" transform="translate(300.792 -51.969)" fill="#335230"/>
          </g>
          <g id="Group_105" data-name="Group 105" transform="translate(9.301 0.517)">
            <path id="Path_62" data-name="Path 62" d="M-282.636,100.227c-.286-.212-7-5.272-7-13.228a19.011,19.011,0,0,1,.2-2.772,16.334,16.334,0,0,1,6.923-10.838c1.8-1.257,4.807-3.889,4.807-7.4,0-5.5-4.921-9.4-4.971-9.44l3.055-3.964c.282.217,6.92,5.4,6.92,13.4,0,4.281-2.465,8.363-6.941,11.5a11.314,11.314,0,0,0-4.843,7.469A14.03,14.03,0,0,0-284.635,87c0,5.4,4.934,9.174,4.983,9.211Z" transform="translate(289.639 -52.589)" fill="#335230"/>
          </g>
        </g>
        <g id="Group_107" data-name="Group 107" transform="translate(62.287 22.111)">
          <path id="Path_63" data-name="Path 63" d="M-243.495,97.946v-5c5.189,0,9.067-2.5,9.067-4.727s-3.878-4.727-9.067-4.727v-5c7.891,0,14.071,4.275,14.071,9.731S-235.6,97.946-243.495,97.946Z" transform="translate(243.495 -78.484)" fill="#335230"/>
        </g>
      </g>
      <g id="Group_109" data-name="Group 109" transform="translate(-231.74 69.999)">
        <path id="Path_64" data-name="Path 64" d="M-209.155,75.573l6.875,18.267,6.858-18.267h5.353V99.406h-4.125V91.548l.409-10.509-7.038,18.366h-2.963l-7.022-18.35.409,10.492v7.857h-4.125V75.573Z" transform="translate(214.524 -73.919)" fill="#335230"/>
        <path id="Path_65" data-name="Path 65" d="M-170.688,98.889a6.169,6.169,0,0,1-4.976,2.062,5.5,5.5,0,0,1-4.362-1.685,7.17,7.17,0,0,1-1.481-4.878V82.913h3.977V94.339q0,3.371,2.8,3.372,2.9,0,3.913-2.079V82.913h3.977v17.712h-3.749Z" transform="translate(209.041 -75.138)" fill="#335230"/>
        <path id="Path_66" data-name="Path 66" d="M-161.5,91.572a10.357,10.357,0,0,1,1.94-6.588,6.227,6.227,0,0,1,5.148-2.463,5.835,5.835,0,0,1,4.763,2.111l.18-1.785h3.585v17.171a7.139,7.139,0,0,1-2.169,5.5,8.263,8.263,0,0,1-5.852,2.013,9.416,9.416,0,0,1-3.806-.811,6.768,6.768,0,0,1-2.824-2.119l1.882-2.39a5.687,5.687,0,0,0,4.518,2.177,4.394,4.394,0,0,0,3.126-1.072,4.109,4.109,0,0,0,1.146-3.151v-1.2a5.854,5.854,0,0,1-4.583,1.916,6.212,6.212,0,0,1-5.083-2.472A10.692,10.692,0,0,1-161.5,91.572Zm3.961.344a7.134,7.134,0,0,0,1.089,4.2,3.5,3.5,0,0,0,3.02,1.53,3.829,3.829,0,0,0,3.568-2.062V87.791a3.774,3.774,0,0,0-3.536-2.013,3.513,3.513,0,0,0-3.052,1.555A7.983,7.983,0,0,0-157.544,91.916Z" transform="translate(205.719 -75.073)" fill="#335230"/>
        <path id="Path_67" data-name="Path 67" d="M-121.619,91.909a8.541,8.541,0,0,1-2.693,5.762,8.909,8.909,0,0,1-6.08,2,8.407,8.407,0,0,1-4.691-1.326,8.644,8.644,0,0,1-3.151-3.757,13.377,13.377,0,0,1-1.129-5.557V85.934a13.485,13.485,0,0,1,1.113-5.631,8.559,8.559,0,0,1,3.2-3.789,8.719,8.719,0,0,1,4.8-1.334,8.527,8.527,0,0,1,6.048,2.063,8.633,8.633,0,0,1,2.578,5.712h-2.03q-.753-6.072-6.6-6.073a6.25,6.25,0,0,0-5.164,2.425,10.512,10.512,0,0,0-1.924,6.7v2.915a10.592,10.592,0,0,0,1.875,6.586,6.039,6.039,0,0,0,5.067,2.457,6.7,6.7,0,0,0,4.762-1.514,7.253,7.253,0,0,0,1.981-4.542Z" transform="translate(202.041 -73.854)" fill="#335230"/>
        <path id="Path_68" data-name="Path 68" d="M-115.669,91.442a10.419,10.419,0,0,1,.991-4.6,7.556,7.556,0,0,1,2.8-3.184,7.541,7.541,0,0,1,4.1-1.137A7.288,7.288,0,0,1-102.05,85a9.561,9.561,0,0,1,2.193,6.572v.409a10.5,10.5,0,0,1-.991,4.624,7.389,7.389,0,0,1-2.79,3.167,7.646,7.646,0,0,1-4.109,1.113,7.292,7.292,0,0,1-5.721-2.479,9.535,9.535,0,0,1-2.2-6.572Zm1.964.54A8.035,8.035,0,0,0-112.06,97.2a5.277,5.277,0,0,0,4.313,2.038,5.258,5.258,0,0,0,4.3-2.038,8.3,8.3,0,0,0,1.645-5.377v-.376a9.022,9.022,0,0,0-.752-3.716,6.057,6.057,0,0,0-2.112-2.611,5.4,5.4,0,0,0-3.11-.925,5.234,5.234,0,0,0-4.272,2.055,8.313,8.313,0,0,0-1.654,5.377Z" transform="translate(198.106 -75.073)" fill="#335230"/>
        <path id="Path_69" data-name="Path 69" d="M-92.364,99.076V82.969h-2.93v-1.6h2.93V79.221a5.829,5.829,0,0,1,1.383-4.174,5.059,5.059,0,0,1,3.855-1.457,7.526,7.526,0,0,1,2.079.276l-.148,1.623a7.645,7.645,0,0,0-1.784-.2A3.2,3.2,0,0,0-89.5,76.3a4.164,4.164,0,0,0-.9,2.865v2.2h4.224v1.6H-90.4V99.076Z" transform="translate(194.722 -73.59)" fill="#335230"/>
        <path id="Path_70" data-name="Path 70" d="M-80.664,99.076V82.969h-2.93v-1.6h2.93V79.221a5.833,5.833,0,0,1,1.383-4.174,5.062,5.062,0,0,1,3.855-1.457,7.526,7.526,0,0,1,2.079.276l-.147,1.623a7.657,7.657,0,0,0-1.785-.2A3.2,3.2,0,0,0-77.8,76.3a4.164,4.164,0,0,0-.9,2.865v2.2h4.224v1.6H-78.7V99.076Z" transform="translate(192.779 -73.59)" fill="#335230"/>
        <path id="Path_71" data-name="Path 71" d="M-63.9,100.886a7.681,7.681,0,0,1-4.085-1.113,7.582,7.582,0,0,1-2.839-3.1,9.664,9.664,0,0,1-1.015-4.461v-.7a10.415,10.415,0,0,1,.99-4.6,7.892,7.892,0,0,1,2.759-3.217,6.813,6.813,0,0,1,3.83-1.17,6.4,6.4,0,0,1,5.115,2.2,8.931,8.931,0,0,1,1.89,6.015v1.1H-69.886v.376a7.417,7.417,0,0,0,1.726,5.018,5.5,5.5,0,0,0,4.346,2,6.371,6.371,0,0,0,2.774-.574,6.144,6.144,0,0,0,2.185-1.833l1.228.933A7.143,7.143,0,0,1-63.9,100.886Zm-.36-16.7a4.9,4.9,0,0,0-3.724,1.62,7.491,7.491,0,0,0-1.841,4.355H-59.2v-.213a6.5,6.5,0,0,0-1.457-4.158A4.513,4.513,0,0,0-64.255,84.191Z" transform="translate(190.826 -75.073)" fill="#335230"/>
        <path id="Path_72" data-name="Path 72" d="M-44.736,100.886a7.681,7.681,0,0,1-4.085-1.113,7.582,7.582,0,0,1-2.839-3.1,9.664,9.664,0,0,1-1.015-4.461v-.7a10.415,10.415,0,0,1,.991-4.6,7.89,7.89,0,0,1,2.758-3.217,6.815,6.815,0,0,1,3.83-1.17,6.4,6.4,0,0,1,5.115,2.2,8.926,8.926,0,0,1,1.89,6.015v1.1H-50.727v.376A7.421,7.421,0,0,0-49,97.229a5.5,5.5,0,0,0,4.346,2,6.369,6.369,0,0,0,2.774-.574,6.153,6.153,0,0,0,2.186-1.833l1.227.933A7.143,7.143,0,0,1-44.736,100.886Zm-.36-16.7a4.9,4.9,0,0,0-3.724,1.62,7.492,7.492,0,0,0-1.841,4.355h10.623v-.213A6.5,6.5,0,0,0-41.5,85.795,4.513,4.513,0,0,0-45.1,84.191Z" transform="translate(187.644 -75.073)" fill="#335230"/>
      </g>
    </g>
  </g>
</svg>
