<svg xmlns="http://www.w3.org/2000/svg" width="236" height="62.69"><defs><clipPath id="a"><path fill="none" d="M0 0h236v62.69H0z"/></clipPath></defs><g data-name="Repeat Grid 1"><g data-name="Group 110" clip-path="url(#a)"><g data-name="Group 108"><g data-name="Group 103"><path data-name="Path 60" d="M32.298 62.689a32.339 32.339 0 01-32.3-32.306v-8.272h11.689v5H5.006v3.269A27.33 27.33 0 0032.3 57.68a27.329 27.329 0 0027.294-27.3v-3.265h-7.24v-5h12.244v8.272a32.338 32.338 0 01-32.3 32.302z" fill="#335230"/></g><g data-name="Group 106"><g data-name="Group 104"><path data-name="Path 61" d="M32.298 48.216c-9.81 0-17.792-10.814-17.792-24.108S22.487 0 32.298 0s17.791 10.815 17.791 24.108-7.981 24.108-17.791 24.108zm0-43.212c-7.052 0-12.788 8.57-12.788 19.1s5.737 19.1 12.788 19.1 12.787-8.57 12.787-19.1-5.737-19.1-12.787-19.1z" fill="#335230"/></g><g data-name="Group 105"><path data-name="Path 62" d="M30.81 48.155c-.286-.212-7-5.272-7-13.228a19.011 19.011 0 01.2-2.772 16.334 16.334 0 016.923-10.838c1.8-1.257 4.807-3.889 4.807-7.4 0-5.5-4.921-9.4-4.971-9.44L33.824.513c.282.217 6.92 5.4 6.92 13.4 0 4.281-2.465 8.363-6.941 11.5a11.314 11.314 0 00-4.843 7.469 14.03 14.03 0 00-.149 2.046c0 5.4 4.934 9.174 4.983 9.211z" fill="#335230"/></g></g><g data-name="Group 107"><path data-name="Path 63" d="M62.287 41.573v-5c5.189 0 9.067-2.5 9.067-4.727s-3.878-4.727-9.067-4.727v-5c7.891 0 14.071 4.275 14.071 9.731s-6.176 9.723-14.071 9.723z" fill="#335230"/></g></g><g data-name="Group 109" fill="#335230"><path data-name="Path 64" d="M91.816 19.684l6.875 18.267 6.858-18.267h5.353v23.833h-4.125v-7.858l.409-10.509-7.038 18.366h-2.963l-7.022-18.35.409 10.492v7.857h-4.125V19.684z"/><path data-name="Path 65" d="M124.8 41.781a6.169 6.169 0 01-4.976 2.062 5.5 5.5 0 01-4.362-1.685 7.17 7.17 0 01-1.481-4.878V25.805h3.977v11.426q0 3.371 2.8 3.372 2.9 0 3.913-2.079V25.805h3.977v17.712h-3.749z"/><path data-name="Path 66" d="M130.666 34.529a10.357 10.357 0 011.94-6.588 6.227 6.227 0 015.148-2.463 5.835 5.835 0 014.763 2.111l.18-1.785h3.585v17.171a7.139 7.139 0 01-2.169 5.5 8.263 8.263 0 01-5.852 2.013 9.416 9.416 0 01-3.806-.811 6.768 6.768 0 01-2.824-2.119l1.882-2.39a5.687 5.687 0 004.518 2.177 4.394 4.394 0 003.126-1.072 4.109 4.109 0 001.146-3.151v-1.2a5.854 5.854 0 01-4.583 1.916 6.212 6.212 0 01-5.083-2.472 10.692 10.692 0 01-1.971-6.837zm3.961.344a7.134 7.134 0 001.089 4.2 3.5 3.5 0 003.02 1.53 3.829 3.829 0 003.568-2.062v-7.793a3.774 3.774 0 00-3.536-2.013 3.513 3.513 0 00-3.052 1.555 7.983 7.983 0 00-1.094 4.583z"/><path data-name="Path 67" d="M166.869 36.085a8.541 8.541 0 01-2.693 5.762 8.909 8.909 0 01-6.08 2 8.407 8.407 0 01-4.691-1.326 8.644 8.644 0 01-3.151-3.757 13.377 13.377 0 01-1.129-5.557V30.11a13.485 13.485 0 011.113-5.631 8.559 8.559 0 013.2-3.789 8.719 8.719 0 014.8-1.334 8.527 8.527 0 016.048 2.063 8.633 8.633 0 012.578 5.712h-2.03q-.753-6.072-6.6-6.073a6.25 6.25 0 00-5.164 2.425 10.512 10.512 0 00-1.924 6.7v2.915a10.592 10.592 0 001.875 6.586 6.039 6.039 0 005.067 2.457 6.7 6.7 0 004.762-1.514 7.253 7.253 0 001.981-4.542z"/><path data-name="Path 68" d="M168.884 34.399a10.419 10.419 0 01.991-4.6 7.556 7.556 0 012.8-3.184 7.541 7.541 0 014.1-1.137 7.288 7.288 0 015.728 2.479 9.561 9.561 0 012.193 6.572v.409a10.5 10.5 0 01-.991 4.624 7.389 7.389 0 01-2.79 3.167 7.646 7.646 0 01-4.109 1.113 7.292 7.292 0 01-5.721-2.479 9.535 9.535 0 01-2.2-6.572zm1.964.54a8.035 8.035 0 001.645 5.218 5.277 5.277 0 004.313 2.038 5.258 5.258 0 004.3-2.038 8.3 8.3 0 001.645-5.377v-.376a9.022 9.022 0 00-.752-3.716 6.057 6.057 0 00-2.112-2.611 5.4 5.4 0 00-3.11-.925 5.234 5.234 0 00-4.272 2.055 8.313 8.313 0 00-1.654 5.377z"/><path data-name="Path 69" d="M188.805 43.516V27.409h-2.93v-1.6h2.93v-2.148a5.829 5.829 0 011.383-4.174 5.059 5.059 0 013.855-1.457 7.526 7.526 0 012.079.276l-.148 1.623a7.645 7.645 0 00-1.784-.2 3.2 3.2 0 00-2.521 1.011 4.164 4.164 0 00-.9 2.865v2.2h4.224v1.6h-4.224v16.111z"/><path data-name="Path 70" d="M198.562 43.516V27.409h-2.93v-1.6h2.93v-2.148a5.833 5.833 0 011.383-4.174 5.062 5.062 0 013.855-1.457 7.526 7.526 0 012.079.276l-.147 1.623a7.657 7.657 0 00-1.785-.2 3.2 3.2 0 00-2.521 1.011 4.164 4.164 0 00-.9 2.865v2.2h4.224v1.6h-4.224v16.111z"/><path data-name="Path 71" d="M213.373 43.843a7.681 7.681 0 01-4.085-1.113 7.582 7.582 0 01-2.839-3.1 9.664 9.664 0 01-1.015-4.461v-.7a10.415 10.415 0 01.99-4.6 7.892 7.892 0 012.759-3.217 6.813 6.813 0 013.83-1.17 6.4 6.4 0 015.115 2.2 8.931 8.931 0 011.89 6.015v1.1h-12.631v.376a7.417 7.417 0 001.726 5.018 5.5 5.5 0 004.346 2 6.371 6.371 0 002.774-.574 6.144 6.144 0 002.185-1.833l1.228.933a7.143 7.143 0 01-6.273 3.126zm-.36-16.7a4.9 4.9 0 00-3.724 1.62 7.491 7.491 0 00-1.841 4.355h10.625v-.213a6.5 6.5 0 00-1.457-4.158 4.513 4.513 0 00-3.598-1.599z"/><path data-name="Path 72" d="M229.355 43.843a7.681 7.681 0 01-4.085-1.113 7.582 7.582 0 01-2.839-3.1 9.664 9.664 0 01-1.015-4.461v-.7a10.415 10.415 0 01.991-4.6 7.89 7.89 0 012.758-3.217 6.815 6.815 0 013.83-1.17 6.4 6.4 0 015.115 2.2 8.926 8.926 0 011.89 6.015v1.1h-12.636v.376a7.421 7.421 0 001.727 5.013 5.5 5.5 0 004.346 2 6.369 6.369 0 002.774-.574 6.153 6.153 0 002.186-1.833l1.227.933a7.143 7.143 0 01-6.269 3.131zm-.36-16.7a4.9 4.9 0 00-3.724 1.62 7.492 7.492 0 00-1.841 4.355h10.623v-.213a6.5 6.5 0 00-1.462-4.153 4.513 4.513 0 00-3.6-1.604z"/></g></g></g></svg>