<svg xmlns="http://www.w3.org/2000/svg" width="198" height="52.596"><g data-name="Group 118"><g data-name="Group 116"><g data-name="Group 111"><path data-name="Path 73" d="M27.097 52.596a27.131 27.131 0 01-27.1-27.1v-6.94h9.8v4.2H4.191v2.743a22.929 22.929 0 0022.9 22.906 22.929 22.929 0 0022.9-22.906v-2.75h-6.074v-4.2h10.272v6.94a27.131 27.131 0 01-27.092 27.107z" fill="#eed9b1"/></g><g data-name="Group 114"><g data-name="Group 112"><path data-name="Path 74" d="M27.097 40.452c-8.231 0-14.927-9.073-14.927-20.226S18.87 0 27.097 0s14.926 9.074 14.926 20.226-6.695 20.226-14.926 20.226zm0-36.254c-5.916 0-10.729 7.19-10.729 16.028s4.813 16.028 10.729 16.028 10.728-7.19 10.728-16.028S33.012 4.198 27.097 4.198z" fill="#eed9b1"/></g><g data-name="Group 113"><path data-name="Path 75" d="M25.849 40.401c-.24-.178-5.876-4.423-5.876-11.1a15.95 15.95 0 01.169-2.326 13.7 13.7 0 015.808-9.093c1.506-1.054 4.033-3.262 4.033-6.205 0-4.613-4.129-7.888-4.171-7.92L28.375.432c.236.182 5.806 4.534 5.806 11.245 0 3.591-2.068 7.016-5.823 9.645a9.492 9.492 0 00-4.063 6.266 11.772 11.772 0 00-.124 1.713c0 4.531 4.139 7.7 4.18 7.728z" fill="#eed9b1"/></g></g><g data-name="Group 115"><path data-name="Path 76" d="M52.258 34.879v-4.2c4.354 0 7.607-2.095 7.607-3.966s-3.253-3.966-7.607-3.966v-4.2c6.62 0 11.805 3.586 11.805 8.164s-5.185 8.168-11.805 8.168z" fill="#eed9b1"/></g></g><g data-name="Group 117" fill="#eed9b1"><path data-name="Path 77" d="M77.031 16.514l5.768 15.326 5.754-15.326h4.491v20h-3.461v-6.597l.344-8.817-5.9 15.409h-2.486L75.65 21.114l.343 8.8v6.592h-3.46v-20z"/><path data-name="Path 78" d="M104.704 35.054a5.176 5.176 0 01-4.175 1.73 4.614 4.614 0 01-3.66-1.414 6.016 6.016 0 01-1.243-4.093V21.65h3.337v9.587q0 2.828 2.349 2.829a3.3 3.3 0 003.283-1.744V21.65h3.337v14.86h-3.146z"/><path data-name="Path 79" d="M109.621 28.97a8.69 8.69 0 011.627-5.527 5.225 5.225 0 014.319-2.067 4.9 4.9 0 014 1.771l.151-1.5h3.008v14.408a5.989 5.989 0 01-1.82 4.614 6.932 6.932 0 01-4.909 1.689 7.9 7.9 0 01-3.193-.68 5.678 5.678 0 01-2.369-1.778l1.579-2.005a4.771 4.771 0 003.791 1.826 3.687 3.687 0 002.623-.9 3.447 3.447 0 00.961-2.643v-1a4.911 4.911 0 01-3.845 1.607 5.211 5.211 0 01-4.264-2.074 8.971 8.971 0 01-1.659-5.741zm3.323.288a5.985 5.985 0 00.914 3.523 2.937 2.937 0 002.533 1.284 3.213 3.213 0 002.994-1.73v-6.537a3.166 3.166 0 00-2.967-1.689 2.948 2.948 0 00-2.561 1.3 6.7 6.7 0 00-.913 3.846z"/><path data-name="Path 80" d="M140 30.275a7.166 7.166 0 01-2.259 4.834 7.474 7.474 0 01-5.1 1.675 7.054 7.054 0 01-3.936-1.112 7.252 7.252 0 01-2.643-3.152 11.223 11.223 0 01-.947-4.662v-2.599a11.314 11.314 0 01.934-4.724 7.181 7.181 0 012.685-3.179 7.315 7.315 0 014.03-1.119 7.154 7.154 0 015.075 1.731 7.243 7.243 0 012.163 4.792h-1.7q-.632-5.094-5.535-5.095a5.244 5.244 0 00-4.332 2.035 8.82 8.82 0 00-1.614 5.621v2.446a8.887 8.887 0 001.573 5.526 5.067 5.067 0 004.251 2.061 5.622 5.622 0 004-1.271 6.085 6.085 0 001.662-3.81z"/><path data-name="Path 81" d="M141.69 28.861a8.741 8.741 0 01.831-3.859 6.339 6.339 0 012.348-2.671 6.326 6.326 0 013.44-.954 6.114 6.114 0 014.807 2.08 8.021 8.021 0 011.84 5.514v.344a8.813 8.813 0 01-.831 3.88 6.2 6.2 0 01-2.341 2.66 6.415 6.415 0 01-3.447.934 6.118 6.118 0 01-4.8-2.08 8 8 0 01-1.847-5.514zm1.648.453a6.742 6.742 0 001.38 4.374 4.428 4.428 0 003.619 1.71 4.411 4.411 0 003.6-1.71 6.961 6.961 0 001.38-4.511v-.316a7.57 7.57 0 00-.631-3.118 5.081 5.081 0 00-1.772-2.191 4.528 4.528 0 00-2.609-.776 4.391 4.391 0 00-3.584 1.724 6.974 6.974 0 00-1.387 4.511z"/><path data-name="Path 82" d="M158.405 36.51V22.996h-2.459V21.65h2.459v-1.8a4.891 4.891 0 011.16-3.5 4.245 4.245 0 013.234-1.222 6.313 6.313 0 011.744.232l-.124 1.362a6.414 6.414 0 00-1.5-.165 2.689 2.689 0 00-2.116.847 3.494 3.494 0 00-.755 2.4v1.844h3.544v1.346h-3.544V36.51z"/><path data-name="Path 83" d="M166.59 36.51V22.996h-2.459V21.65h2.459v-1.8a4.894 4.894 0 011.16-3.5 4.247 4.247 0 013.234-1.222 6.313 6.313 0 011.741.231l-.123 1.362a6.424 6.424 0 00-1.5-.165 2.689 2.689 0 00-2.116.847 3.494 3.494 0 00-.755 2.4v1.844h3.544v1.346h-3.544V36.51z"/><path data-name="Path 84" d="M179.02 36.784a6.444 6.444 0 01-3.427-.929 6.361 6.361 0 01-2.382-2.6 8.108 8.108 0 01-.851-3.742v-.59a8.738 8.738 0 01.833-3.868 6.621 6.621 0 012.314-2.7 5.716 5.716 0 013.213-.982 5.368 5.368 0 014.292 1.847 7.493 7.493 0 011.581 5.05v.921h-10.6v.316a6.222 6.222 0 001.448 4.21 4.612 4.612 0 003.652 1.681 5.345 5.345 0 002.328-.481 5.155 5.155 0 001.833-1.538l1.03.783a5.993 5.993 0 01-5.264 2.622zm-.3-14.008a4.11 4.11 0 00-3.127 1.36 6.285 6.285 0 00-1.545 3.654h8.913v-.178a5.453 5.453 0 00-1.222-3.488 3.787 3.787 0 00-3.022-1.347z"/><path data-name="Path 85" d="M192.425 36.784a6.444 6.444 0 01-3.427-.929 6.361 6.361 0 01-2.382-2.6 8.108 8.108 0 01-.851-3.742v-.59a8.738 8.738 0 01.831-3.859 6.619 6.619 0 012.314-2.7 5.718 5.718 0 013.213-.982 5.368 5.368 0 014.292 1.847 7.489 7.489 0 011.586 5.047v.921h-10.6v.316a6.226 6.226 0 001.448 4.21 4.613 4.613 0 003.647 1.682 5.343 5.343 0 002.328-.481 5.163 5.163 0 001.834-1.538l1.029.783a5.993 5.993 0 01-5.262 2.615zm-.3-14.008A4.11 4.11 0 00189 24.135a6.285 6.285 0 00-1.545 3.654h8.913v-.178a5.453 5.453 0 00-1.229-3.488 3.787 3.787 0 00-3.017-1.346z"/></g></g></svg>